<svg width="466" height="31" viewBox="0 0 466 31" fill="none" xmlns="http://www.w3.org/2000/svg">
<path d="M272.218 2.36612C273.347 1.04158 275.266 0.0561928 276.845 0C277.046 1.83028 276.308 3.66056 275.207 4.9831C274.107 6.30564 272.329 7.34922 270.55 7.20673C270.299 5.40655 271.202 3.52008 272.218 2.36612Z" fill="black"/>
<path d="M280.711 26.9988C279.47 28.829 278.172 30.6312 276.141 30.6593C274.109 30.6874 273.487 29.4773 271.202 29.4773C268.917 29.4773 268.184 30.6312 266.291 30.7155C264.316 30.7998 262.819 28.7447 261.55 26.9426C258.983 23.2278 257.007 16.4706 259.659 11.8909C260.986 9.61109 263.3 8.17416 265.841 8.14606C267.786 8.11796 269.592 9.44251 270.777 9.44251C271.962 9.44251 274.052 7.89319 276.507 8.06177C277.466 8.14606 280.232 8.42903 281.983 11.0179C281.842 11.1022 278.708 12.9325 278.764 16.7054C278.792 21.239 282.743 22.7261 282.771 22.7582C282.303 24.2674 281.609 25.6972 280.711 26.9988Z" fill="black"/>
<path d="M299.818 12.2747H295.731V23.4791C295.731 23.9567 295.759 24.4083 295.787 24.7455C295.812 25.0631 295.908 25.371 296.069 25.6465C296.211 25.8883 296.43 26.0765 296.69 26.1824C297.074 26.3328 297.485 26.4012 297.897 26.3831C298.207 26.3831 298.517 26.3831 298.857 26.355C299.181 26.3475 299.503 26.3003 299.816 26.2145V29.7888C299.307 29.845 298.829 29.9011 298.348 29.9573C297.897 29.9854 297.388 30.0135 296.881 30.0135C295.903 30.0316 294.927 29.9278 293.974 29.7045C293.331 29.506 292.742 29.1627 292.252 28.701C291.838 28.2137 291.548 27.6341 291.405 27.0112C291.254 26.2507 291.17 25.4785 291.152 24.7033V12.3048H287.732V8.86295H291.152V2.59143H295.696V8.86295H299.788V12.2747H299.818Z" fill="black"/>
<path d="M314.633 29.8147H309.554L302.076 8.81262H307.015L312.235 24.944H312.32L317.343 8.81262H322.028L314.633 29.8147Z" fill="black"/>
<path d="M84.9236 10.7857C87.5274 10.7857 90.1328 10.8 92.7366 10.7747C93.2928 10.7747 93.4669 10.9252 93.4637 11.483C93.4395 15.229 93.4637 18.975 93.4492 22.7211C93.4492 24.0918 92.5915 24.9142 91.1824 24.9395C90.9945 24.9522 90.806 24.9522 90.6181 24.9395C90.1618 24.8841 90.0167 25.0695 90.0296 25.5163C90.0586 26.5178 90.0457 27.5209 90.0296 28.5271C90.0167 29.9152 89.2767 30.7773 88.1094 30.7788C86.9421 30.7804 86.1747 29.9168 86.1634 28.5445C86.1634 27.5161 86.1505 26.4845 86.1634 25.4577C86.1634 25.1012 86.078 24.8967 85.6797 24.9459C85.6261 24.9506 85.5721 24.9506 85.5185 24.9459C83.6112 24.8999 83.6128 24.8999 83.6096 26.765C83.6096 27.4496 83.5935 28.1357 83.5838 28.825C83.5661 29.9596 82.797 30.7646 81.7136 30.7868C81.4572 30.7935 81.2021 30.7501 80.963 30.659C80.7238 30.568 80.5055 30.4311 80.3207 30.2564C80.1358 30.0817 79.9882 29.8725 79.8863 29.6412C79.7845 29.4099 79.7304 29.161 79.7273 28.909C79.6886 27.7998 79.6983 26.6905 79.7273 25.5813C79.737 25.1313 79.6547 24.9379 79.1227 24.93C76.9365 24.8952 76.3335 24.2613 76.3335 22.111C76.3335 18.6248 76.3512 15.1387 76.3174 11.6636C76.3174 10.9902 76.4512 10.762 77.1864 10.7762C79.7676 10.8143 82.3456 10.7857 84.9236 10.7857Z" fill="black"/>
<path d="M84.9629 10.05C82.3607 10.05 79.7585 10.0231 77.1564 10.0658C76.4308 10.0785 76.2874 9.82181 76.3793 9.19272C76.7227 6.82847 77.9335 5.00776 79.9794 3.75433C80.5582 3.39937 80.6082 3.12047 80.2519 2.59755C79.9633 2.15364 79.7058 1.69092 79.4812 1.2126C79.378 1.0066 79.0653 0.737229 79.4554 0.553413C79.8134 0.385444 79.8843 0.770493 80.0068 0.976493C80.3164 1.49942 80.6211 2.0271 80.8887 2.57063C81.0741 2.95093 81.2757 3.04601 81.6949 2.88755C83.747 2.12453 86.0095 2.11047 88.0713 2.84793C88.555 3.0159 88.7404 2.87962 88.9323 2.48822C89.1886 1.96847 89.482 1.46456 89.7771 0.963823C89.9012 0.75307 89.9947 0.382267 90.3382 0.545483C90.7283 0.732467 90.401 1.00027 90.2978 1.20469C90.047 1.7289 89.7627 2.23699 89.4466 2.72591C89.1354 3.18228 89.2854 3.35975 89.7174 3.62914C91.8295 4.92218 93.1725 6.72706 93.4853 9.2149C93.5707 9.89629 93.3627 10.0706 92.6791 10.0611C90.114 10.0278 87.5377 10.05 84.9629 10.05ZM88.8323 7.0218C89.2257 6.92831 89.5417 6.73658 89.5256 6.29764C89.5286 6.21256 89.5142 6.12773 89.4831 6.04825C89.4521 5.96877 89.405 5.89625 89.3449 5.83502C89.2847 5.7738 89.2125 5.72512 89.1328 5.69188C89.053 5.65865 88.9673 5.64156 88.8807 5.64161C88.7872 5.62856 88.692 5.63583 88.6017 5.66291C88.5114 5.68999 88.4283 5.7362 88.3582 5.79831C88.2881 5.86042 88.2327 5.93691 88.1959 6.02237C88.1592 6.10782 88.142 6.20017 88.1455 6.29288C88.1116 6.72548 88.4341 6.92514 88.8275 7.0218H88.8323ZM80.9968 5.62577C80.6001 5.6638 80.3406 5.87297 80.3148 6.25961C80.2857 6.69855 80.5421 6.97743 80.9806 6.9806C81.0687 6.98854 81.1574 6.97834 81.2412 6.95064C81.325 6.92294 81.402 6.87836 81.4672 6.81974C81.5325 6.76113 81.5846 6.68977 81.6201 6.61023C81.6557 6.5307 81.674 6.44474 81.6739 6.35786C81.6884 5.91575 81.4208 5.70183 80.9919 5.62577H80.9968Z" fill="black"/>
<path d="M75.667 16.1762C75.667 17.39 75.6783 18.6038 75.667 19.8208C75.6525 21.0774 74.8738 21.9204 73.75 21.9268C72.6634 21.9268 71.8379 21.0489 71.8315 19.8208C71.8186 17.3678 71.8186 14.9148 71.8315 12.4619C71.8315 11.1942 72.5989 10.3923 73.7549 10.3876C74.9109 10.3828 75.6606 11.1799 75.6702 12.4619C75.6751 13.6963 75.667 14.937 75.667 16.1762Z" fill="black"/>
<path d="M97.859 16.2331C97.859 17.4707 97.8736 18.7099 97.859 19.9459C97.8413 21.0963 97.0529 21.9076 96.0017 21.9219C94.9505 21.9362 94.096 21.1169 94.0831 19.9886C94.0563 17.4311 94.0563 14.8746 94.0831 12.3191C94.0928 11.1576 94.8893 10.3875 95.9695 10.3827C97.0497 10.378 97.8671 11.1259 97.9042 12.2843C97.9477 13.6011 97.9139 14.9195 97.9139 16.2363L97.859 16.2331Z" fill="black"/>
<path d="M215.112 31C214.331 30.8344 213.542 30.6999 212.769 30.4993C208.825 29.4706 206.294 26.3535 206.255 22.3753C206.211 18.025 206.245 13.6746 206.235 9.32235C206.235 8.97946 206.342 8.61516 206.121 8.28592C205.754 8.28592 205.605 8.57815 205.404 8.77297C202.463 11.6095 199.547 14.4695 196.584 17.2866C195.982 17.8516 195.982 18.1847 196.584 18.7555C200.324 22.3324 204.027 25.9444 207.737 29.5524C207.954 29.7648 208.393 29.9518 208.213 30.3103C208.078 30.5811 207.665 30.4506 207.374 30.4506C204.563 30.4506 201.753 30.435 198.942 30.4681C198.612 30.4784 198.283 30.4187 197.979 30.2932C197.674 30.1677 197.402 29.9794 197.18 29.7414C194.454 27.1101 191.71 24.493 188.95 21.8902C188.723 21.6759 188.548 21.3583 188.163 21.331C187.908 21.6506 188.026 22.0188 188.024 22.3578C188.012 24.6956 187.998 27.0334 188.024 29.3713C188.024 30.1505 187.785 30.4856 186.932 30.4701C184.792 30.4291 182.65 30.4233 180.508 30.4701C179.601 30.4915 179.362 30.1311 179.364 29.3187C179.384 22.0792 179.384 14.8403 179.364 7.6021C179.364 6.77801 179.655 6.43317 180.531 6.44485C182.637 6.47992 184.744 6.47992 186.852 6.44485C187.721 6.43122 188.034 6.76827 188.02 7.60015C187.986 9.84058 188.004 12.081 188.02 14.3195C188.02 14.6585 187.9 15.0286 188.169 15.3462C188.588 15.2877 188.771 14.9565 189.026 14.7072C191.589 12.2395 194.144 9.76134 196.692 7.27284C196.903 7.04612 197.162 6.86642 197.452 6.74603C197.741 6.62564 198.054 6.56742 198.368 6.57539C203.417 6.59487 208.468 6.60656 213.518 6.57539C214.506 6.57539 214.769 6.91438 214.761 7.82224C214.721 11.8161 214.743 15.8099 214.745 19.8017C214.719 20.8082 214.854 21.8125 215.146 22.7786C215.548 24.002 216.288 24.5008 217.609 24.5319C220.125 24.5884 221.881 22.9598 221.881 20.5635C221.881 16.3106 221.903 12.0576 221.865 7.80664C221.855 6.87735 222.162 6.55007 223.128 6.57734C225.537 6.64553 227.945 6.62994 230.354 6.64943V30.4174C229.801 30.5432 229.223 30.5217 228.682 30.3554C228.14 30.1892 227.655 29.8841 227.277 29.4726C226.675 28.8706 225.974 28.364 225.324 27.8069C225.065 27.5848 224.826 27.3432 224.481 27.688C222.616 29.5485 220.251 30.4486 217.708 31H215.112Z" fill="black"/>
<path d="M141.84 0.0236777C144.024 0.543847 146.144 1.19259 147.987 2.52321C153.608 6.61443 153.654 13.6143 148.057 17.7192C146.853 18.6017 146.865 18.5959 147.776 19.8193C150.165 23.0274 152.549 26.2399 154.929 29.4571C155.111 29.7045 155.503 29.9519 155.296 30.289C155.107 30.5929 154.682 30.4545 154.362 30.4545C151.921 30.4545 149.478 30.4351 147.039 30.476C146.709 30.4994 146.379 30.4343 146.085 30.288C145.79 30.1416 145.543 29.9196 145.369 29.6461C143.294 26.8192 141.188 24.0119 139.094 21.1967C138.518 20.4174 137.33 20.0492 136.458 20.3668C135.935 20.5616 136.057 20.9941 136.057 21.3584C136.047 23.9554 136.057 26.5523 136.057 29.1512C136.057 30.4409 136.041 30.4604 134.712 30.4565C132.339 30.4565 129.964 30.4292 127.592 30.4156C127.592 20.5655 127.586 10.716 127.576 0.867239C127.576 0.216541 127.648 -0.00944074 128.425 0.000300256C132.893 0.0490052 137.368 0.0236777 141.84 0.0236777ZM136.055 10.0998C136.055 11.0076 136.039 11.9155 136.055 12.8272C136.113 15.5158 135.525 15.2274 138.592 15.1534C140.821 15.1008 142.531 14.0117 143.314 11.97C144.069 10.0101 143.703 8.15547 142.109 6.60275C140.55 5.07731 138.59 5.07146 136.599 5.15913C136.019 5.18445 136.055 5.6345 136.053 6.02414C136.053 7.37814 136.057 8.73992 136.055 10.0998Z" fill="black"/>
<path d="M163.723 30.9999C161.816 30.6356 159.959 30.1621 158.267 29.1666C156.008 27.8449 154.224 25.8792 153.158 23.5375C152.092 21.1958 151.796 18.5921 152.311 16.0813C152.825 13.5705 154.125 11.2748 156.033 9.50705C157.941 7.73932 160.364 6.58561 162.972 6.2032C171.058 5.03428 178.158 11.0055 177.996 18.8314C177.871 24.7092 173.212 29.8836 167.208 30.8168C166.913 30.8616 166.624 30.9375 166.333 30.9999H163.723ZM160.957 18.545C161.095 20.1231 161.3 21.7304 162.248 23.1428C163.839 25.5138 166.18 25.5216 167.79 23.1681C169.559 20.5848 169.458 16.0884 167.577 13.5635C166.116 11.5997 163.886 11.627 162.436 13.6142C161.368 15.0812 161.097 16.778 160.957 18.545Z" fill="black"/>
<path d="M430.1 5.44994C430.368 4.50491 430.884 3.75861 431.79 3.32168C432.168 3.13427 432.583 3.03571 433.005 3.03345C443.022 3.03345 453.04 3.03486 463.057 3.03768C464.651 3.03768 465.986 4.37665 465.988 5.97636C465.994 13.033 465.994 20.0896 465.988 27.1462C465.988 28.7614 464.645 30.0877 463.024 30.0898C458.532 30.0954 454.037 30.0954 449.539 30.0898C448.588 30.0898 448.009 29.5021 448.009 28.557C448.009 27.624 448.598 27.0271 449.553 27.0257C453.312 27.02 457.072 27.02 460.831 27.0257C461.392 27.0257 461.954 27.0074 462.516 27.0334C462.859 27.0489 462.948 26.9256 462.947 26.5923C462.937 22.7595 462.935 18.9263 462.941 15.0926C462.941 12.2564 462.941 9.41987 462.941 6.58313C462.941 6.10462 462.941 6.10392 462.456 6.10392H433.595C433.137 6.10392 433.137 6.10392 433.137 6.57397C433.137 7.89814 433.145 9.22301 433.133 10.5472C433.118 12.0715 431.681 12.3393 430.821 11.9165C430.462 11.7396 430.284 11.4098 430.105 11.0785L430.1 5.44994Z" fill="black"/>
<path d="M430.099 14.5906C430.386 13.7936 430.977 13.4912 431.79 13.5166C436.212 13.6519 439.911 15.3594 442.849 18.6787C444.936 21.0346 446.118 23.8098 446.489 26.9324C446.564 27.4901 446.594 28.0528 446.579 28.6153C446.541 29.5314 445.943 30.0952 445.01 30.0881C444.128 30.0825 443.544 29.511 443.525 28.6145C443.468 25.8443 442.664 23.3327 440.928 21.16C438.926 18.6561 436.339 17.1628 433.162 16.7069C432.689 16.6401 432.211 16.6057 431.733 16.604C430.954 16.5976 430.414 16.2876 430.1 15.5751L430.099 14.5906Z" fill="black"/>
<path d="M430.099 19.0949C430.52 18.1788 430.947 17.9519 432.173 18.0322C434.476 18.1837 436.551 18.9483 438.321 20.4473C440.508 22.2988 441.748 24.6599 442.041 27.5304C442.086 27.9022 442.104 28.2766 442.096 28.6509C442.057 29.5431 441.448 30.0998 440.534 30.0914C439.648 30.0836 439.071 29.5149 439.044 28.6242C438.964 25.9406 437.907 23.7799 435.644 22.2817C434.443 21.4853 433.096 21.133 431.672 21.1006C430.887 21.0829 430.36 20.7588 430.102 20.0111L430.099 19.0949Z" fill="black"/>
<path d="M430.099 23.5964C430.386 22.8015 430.974 22.5048 431.788 22.521C434.653 22.5788 437.203 24.8994 437.554 27.7768C437.602 28.1729 437.653 28.5661 437.563 28.9622C437.379 29.7571 436.741 30.1722 435.84 30.0848C435.119 30.0143 434.6 29.4505 434.559 28.6986C434.473 27.1355 433.68 26.0686 432.319 25.7071C432.084 25.6413 431.841 25.6053 431.596 25.5999C430.833 25.5915 430.348 25.2201 430.099 24.5104V23.5964Z" fill="black"/>
<path d="M430.099 28.0978C430.234 27.8955 430.325 27.6665 430.503 27.4882C430.732 27.2515 431.031 27.096 431.356 27.0451C431.68 26.9943 432.013 27.0509 432.303 27.2063C432.855 27.4882 433.202 28.1457 433.116 28.7504C433.075 29.0714 432.935 29.3715 432.715 29.6084C432.495 29.8454 432.207 30.0074 431.891 30.0717C431.569 30.1361 431.235 30.0951 430.938 29.9547C430.64 29.8143 430.396 29.5819 430.24 29.2916C430.19 29.1993 430.144 29.1055 430.099 29.0097L430.099 28.0978Z" fill="black"/>
<path fill-rule="evenodd" clip-rule="evenodd" d="M390.833 25.6958C386.157 29.1487 379.385 30.9977 373.551 30.9977C365.751 31.0484 358.213 28.1738 352.42 22.9389C351.983 22.5478 352.374 22.0044 352.896 22.2761C359.327 25.9602 366.607 27.8953 374.014 27.8895C379.55 27.8594 385.025 26.7333 390.126 24.5758C390.913 24.2378 391.574 25.0994 390.787 25.6693L390.833 25.6958Z" fill="black"/>
<path fill-rule="evenodd" clip-rule="evenodd" d="M392.766 23.4755C392.164 22.7067 388.798 23.111 387.31 23.29C386.853 23.343 386.781 22.9453 387.191 22.6272C389.836 20.7451 394.248 21.3018 394.757 21.9181C395.266 22.5344 394.625 26.9615 392.111 29.0623C391.721 29.3805 391.357 29.2082 391.529 28.784C392.092 27.3724 393.355 24.2111 392.76 23.449L392.766 23.4755Z" fill="black"/>
<path fill-rule="evenodd" clip-rule="evenodd" d="M373.717 8.55131C376.362 8.55131 376.323 10.8576 376.256 11.865H370.701C370.8 10.1419 371.633 8.55131 373.717 8.55131ZM377.93 13.3826C378.26 13.3826 378.307 12.2759 378.327 11.8053C378.452 8.4519 376.68 6.82157 373.809 6.82157C373.065 6.79214 372.323 6.92776 371.637 7.21875C370.951 7.50974 370.338 7.94891 369.841 8.50491C368.984 9.79011 368.52 11.2976 368.505 12.8429C368.49 14.3883 368.924 15.9046 369.755 17.2066C370.601 18.2206 371.891 18.9231 374.133 18.9231C375.345 18.926 376.545 18.6896 377.665 18.2272C378.049 18.088 378.049 17.9157 378.049 17.5645V16.9481C378.049 16.6035 377.903 16.471 377.539 16.5903C376.537 16.9297 375.489 17.1173 374.431 17.1469C373.896 17.1865 373.359 17.1118 372.855 16.9279C372.351 16.744 371.892 16.4549 371.508 16.0799C370.949 15.298 370.655 14.3575 370.668 13.3959L377.93 13.3826Z" fill="black"/>
<path fill-rule="evenodd" clip-rule="evenodd" d="M351.095 7.1656V4.95206C351.095 3.17593 352.868 3.40127 353.998 3.54707C354.501 3.63985 354.66 3.54708 354.66 3.16269V2.42705C354.66 2.06255 354.514 1.93664 353.998 1.79747C351.214 1.28054 348.793 1.83723 348.793 5.37621V7.22524L347.166 7.41742C346.822 7.45056 346.697 7.5566 346.697 7.90122V8.48443C346.697 8.80254 346.836 8.93508 347.14 8.93508H348.793V18.1272C348.793 18.4453 348.926 18.5712 349.243 18.5712H350.599C350.916 18.5712 351.042 18.4453 351.042 18.1272V8.93508H354.051C354.362 8.93508 354.495 8.80254 354.495 8.48443V7.61625C354.495 7.29814 354.349 7.1656 354.051 7.1656H351.095Z" fill="black"/>
<path fill-rule="evenodd" clip-rule="evenodd" d="M358.227 7.18574H356.905C356.587 7.18574 356.462 7.31166 356.462 7.62315V18.1274C356.462 18.4455 356.587 18.5715 356.905 18.5715H358.227C358.545 18.5715 358.677 18.4455 358.677 18.1274V7.62315C358.683 7.56321 358.674 7.50281 358.654 7.4464C358.633 7.38999 358.599 7.33895 358.556 7.29704C358.513 7.25513 358.461 7.22338 358.404 7.20412C358.348 7.18487 358.287 7.1786 358.227 7.18574ZM357.566 2.44058C357.384 2.43227 357.202 2.46175 357.032 2.52716C356.862 2.59257 356.707 2.69248 356.577 2.82067C356.448 2.94885 356.346 3.10252 356.278 3.27205C356.21 3.44157 356.178 3.62329 356.184 3.8058C356.184 4.17843 356.331 4.53579 356.594 4.79927C356.857 5.06276 357.214 5.21079 357.586 5.21079C357.958 5.21079 358.314 5.06276 358.577 4.79927C358.84 4.53579 358.988 4.17843 358.988 3.8058C359.003 3.61745 358.976 3.42808 358.909 3.25144C358.842 3.07479 358.737 2.9153 358.601 2.78456C358.465 2.65383 358.301 2.55513 358.122 2.49563C357.943 2.43613 357.753 2.41733 357.566 2.44058Z" fill="black"/>
<path fill-rule="evenodd" clip-rule="evenodd" d="M396.509 18.5715H395.087C394.948 18.5822 394.81 18.5436 394.696 18.4625C394.582 18.3813 394.501 18.2627 394.466 18.1274L390.345 7.69605C390.219 7.37794 390.299 7.17249 390.629 7.17249H392.151C392.462 7.17249 392.581 7.35805 392.68 7.60989L395.802 16.5038L398.897 7.60989C399.042 7.29841 399.175 7.17249 399.492 7.17249H400.855C401.232 7.17249 401.324 7.36469 401.179 7.6828L397.058 18.1142C396.946 18.366 396.813 18.5582 396.509 18.5582V18.5715Z" fill="black"/>
<path fill-rule="evenodd" clip-rule="evenodd" d="M383.506 15.6484C383.506 18.2993 385.332 18.7367 386.655 18.7367C387.277 18.7391 387.898 18.6747 388.506 18.5445C389.201 18.3457 389.168 18.2264 389.168 17.8818V17.0733C389.168 16.7552 389.016 16.6557 388.718 16.722C388.251 16.8149 387.778 16.8725 387.303 16.8943C385.834 16.7949 385.702 16.3244 385.702 14.9061V8.94156H388.645C388.963 8.94156 389.088 8.80901 389.088 8.4909V7.60282C389.099 7.54219 389.095 7.47993 389.076 7.42129C389.057 7.36264 389.025 7.30933 388.982 7.26582C388.938 7.22231 388.885 7.18989 388.826 7.17126C388.768 7.15264 388.706 7.14837 388.645 7.15881H385.702V4.42172C385.709 4.36212 385.701 4.30184 385.681 4.24538C385.661 4.18892 385.629 4.13776 385.586 4.09569C385.543 4.05363 385.492 4.02176 385.435 4.00248C385.379 3.98319 385.318 3.97697 385.259 3.98431H384.366C384.022 3.98431 383.85 4.11023 383.817 4.45485L383.533 7.21845L381.873 7.42389C381.522 7.45703 381.396 7.62935 381.396 7.97397V8.4909C381.389 8.55127 381.396 8.61249 381.415 8.67004C381.435 8.72758 381.467 8.77997 381.51 8.82328C381.552 8.86659 381.604 8.89972 381.661 8.9202C381.718 8.94068 381.779 8.94798 381.84 8.94156H383.506V15.6484Z" fill="black"/>
<path fill-rule="evenodd" clip-rule="evenodd" d="M363.724 8.82228L363.565 7.53658C363.493 7.22509 363.307 7.18533 363.049 7.18533H362.057C361.74 7.18533 361.614 7.31125 361.614 7.62274V18.127C361.614 18.4451 361.74 18.5711 362.057 18.5711H363.38C363.698 18.5711 363.823 18.4451 363.823 18.127V10.1742C364.752 9.41392 365.933 9.03078 367.13 9.10062C367.547 9.10062 368.129 9.26631 368.129 8.82228V7.49682C368.129 7.20521 367.957 7.04614 367.401 7.04614C365.999 7.04614 365.053 7.39741 363.717 8.8024L363.724 8.82228Z" fill="black"/>
<path d="M2.54261 3.88864C2.54261 4.3663 2.24642 4.72454 1.73987 4.72454C1.31674 4.72454 1 4.3663 1 3.88864C1 3.43009 1.33729 3.05273 1.78097 3.05273C2.24642 3.05393 2.54261 3.43009 2.54261 3.88864ZM1.37356 28.9658V9.78415H2.16904V28.9682L1.37356 28.9658Z" fill="black" stroke="white" stroke-opacity="0.5" stroke-width="0.5"/>
<path d="M28.6488 15.2996C28.6488 24.9722 23.2086 29.3667 17.2631 29.3667C11.1845 29.3667 6.26172 24.6116 6.26172 15.6984C6.26172 6.54647 11.355 1.63135 17.6898 1.63135C23.8965 1.63015 28.6488 6.46646 28.6488 15.2996ZM7.06929 15.499C7.06929 22.8323 10.6671 28.5296 17.3005 28.5296C23.9787 28.5296 27.8098 22.6567 27.8098 15.4154C27.8098 8.69952 24.7403 2.57114 17.737 2.57114C10.7336 2.57114 7.06929 8.34127 7.06929 15.499Z" fill="black" stroke="white" stroke-opacity="0.5" stroke-width="0.5"/>
<path d="M31.569 26.8892C32.9049 27.7681 35.2103 28.6171 37.193 28.6171C40.9552 28.6171 44.3027 26.0175 44.3027 22.1902C44.3027 18.6388 42.0735 16.7855 38.2883 15.1937C34.9032 13.7679 31.8555 12.2215 31.8555 8.42525C31.8555 4.46903 35.0108 1.67114 39.3002 1.67114C41.6056 1.67114 43.3453 2.31001 44.1553 2.86529L43.8325 3.5579C43.1458 3.08024 41.2864 2.46764 39.2639 2.46764C34.7316 2.46764 32.7562 5.85067 32.7562 8.34166C32.7562 11.7808 35.4557 12.9308 38.9363 14.5703C42.9814 16.5288 45.126 18.2543 45.126 22.0123C45.126 26.0485 42.2137 29.3253 37.0346 29.3253C34.8887 29.3253 32.4213 28.6088 31.2075 27.6869L31.569 26.8892Z" fill="black" stroke="white" stroke-opacity="0.5" stroke-width="0.5"/>
</svg>
